<svg width="121" height="70" viewBox="0 0 121 70" fill="none" xmlns="http://www.w3.org/2000/svg">
<path d="M50.7104 49.8845C46.8017 53.9513 41.8078 56.8108 36.322 58.1232C30.8362 59.4356 25.0889 59.1459 19.7629 57.2885C14.4368 55.431 9.75585 52.0839 6.27593 47.6446C2.796 43.2054 0.663375 37.8606 0.131369 32.2451C-0.400637 26.6296 0.690331 20.9794 3.27469 15.9656C5.85905 10.9518 9.82819 6.78521 14.7107 3.96061C19.5931 1.13601 25.1837 -0.227837 30.8184 0.0310619C36.4531 0.289961 41.8951 2.16073 46.498 5.42115L42.1932 11.4984C38.7537 9.06199 34.6872 7.66405 30.4766 7.47059C26.266 7.27712 22.0884 8.29627 18.44 10.407C14.7915 12.5177 11.8256 15.6312 9.89441 19.3778C7.96323 23.1243 7.148 27.3465 7.54555 31.5427C7.94309 35.7389 9.5367 39.7328 12.1371 43.0501C14.7375 46.3673 18.2354 48.8685 22.2153 50.2565C26.1952 51.6445 30.4899 51.861 34.5892 50.8802C38.6885 49.8995 42.4202 47.7628 45.341 44.7238L50.7104 49.8845Z" fill="url(#paint0_linear_103_155)"/>
<path d="M47.5731 29.0437C47.7721 39.0783 39.7986 47.3742 29.764 47.5731C19.7294 47.7721 11.4334 39.7986 11.2345 29.764C11.0356 19.7294 19.009 11.4334 29.0437 11.2345C39.0783 11.0356 47.3742 19.009 47.5731 29.0437Z" fill="url(#paint1_linear_103_155)"/>
<path d="M40.7171 18.9534C39.5935 17.315 38.167 16.0774 36.491 15.3108C34.464 14.3836 32.1408 14.1769 29.6785 14.6814C32.0822 14.7336 34.3988 15.2494 36.5335 16.2253C38.0569 16.9217 39.4592 17.8395 40.7171 18.9534Z" fill="white"/>
<path d="M121 25.2671L115.901 37.1832H113.221L115.085 33.0712L111.778 25.2671H114.561L116.44 30.3202L118.305 25.2671H121Z" fill="url(#paint2_linear_103_155)"/>
<path d="M102.313 29.2922C102.313 28.4621 102.469 27.7333 102.78 27.1059C103.1 26.4785 103.532 25.9958 104.076 25.658C104.62 25.3202 105.227 25.1512 105.897 25.1512C106.47 25.1512 106.97 25.2671 107.398 25.4987C107.835 25.7304 108.17 26.0345 108.403 26.4109V25.2671H110.894V33.3463H108.403V32.2025C108.16 32.5789 107.82 32.883 107.383 33.1147C106.956 33.3463 106.456 33.4622 105.883 33.4622C105.222 33.4622 104.62 33.2932 104.076 32.9554C103.532 32.6079 103.1 32.1204 102.78 31.493C102.469 30.8559 102.313 30.1223 102.313 29.2922ZM108.403 29.3067C108.403 28.6889 108.228 28.2015 107.878 27.8443C107.539 27.4872 107.121 27.3086 106.626 27.3086C106.13 27.3086 105.708 27.4872 105.358 27.8443C105.018 28.1918 104.848 28.6745 104.848 29.2922C104.848 29.91 105.018 30.4023 105.358 30.7691C105.708 31.1262 106.13 31.3048 106.626 31.3048C107.121 31.3048 107.539 31.1262 107.878 30.7691C108.228 30.4119 108.403 29.9245 108.403 29.3067Z" fill="url(#paint3_linear_103_155)"/>
<path d="M101.512 26.4544C101.512 27.0432 101.376 27.5837 101.104 28.076C100.832 28.5586 100.414 28.9496 99.8511 29.2488C99.2878 29.548 98.5885 29.6976 97.7533 29.6976H96.2091V33.3463H93.718V23.1821H97.7533C98.5691 23.1821 99.2587 23.3221 99.822 23.602C100.385 23.8819 100.808 24.268 101.089 24.7603C101.371 25.2526 101.512 25.8173 101.512 26.4544ZM97.5639 27.7285C98.0398 27.7285 98.3943 27.6175 98.6274 27.3955C98.8605 27.1735 98.977 26.8598 98.977 26.4544C98.977 26.0489 98.8605 25.7352 98.6274 25.5132C98.3943 25.2912 98.0398 25.1802 97.5639 25.1802H96.2091V27.7285H97.5639Z" fill="url(#paint4_linear_103_155)"/>
<path d="M92.3304 31.2469V33.3463H91.063C90.1597 33.3463 89.4556 33.1291 88.9506 32.6948C88.4456 32.2507 88.1931 31.5316 88.1931 30.5374V27.3231H87.2024V25.2671H88.1931V23.2979H90.6842V25.2671H92.3158V27.3231H90.6842V30.5664C90.6842 30.8077 90.7425 30.9814 90.859 31.0876C90.9755 31.1938 91.1698 31.2469 91.4417 31.2469H92.3304Z" fill="url(#paint5_linear_103_155)"/>
<path d="M82.9833 33.4622C82.2743 33.4622 81.643 33.3415 81.0894 33.1002C80.5359 32.8589 80.0988 32.5307 79.7783 32.1156C79.4578 31.6909 79.2782 31.2179 79.2393 30.6967H81.7013C81.7304 30.9766 81.8615 31.2034 82.0946 31.3772C82.3277 31.5509 82.6142 31.6378 82.9542 31.6378C83.2649 31.6378 83.5029 31.5799 83.668 31.4641C83.8428 31.3386 83.9302 31.1793 83.9302 30.9863C83.9302 30.7546 83.8088 30.5857 83.566 30.4795C83.3232 30.3637 82.9299 30.2382 82.386 30.103C81.8033 29.9679 81.3177 29.8279 80.9292 29.6832C80.5407 29.5287 80.2057 29.2922 79.924 28.9737C79.6424 28.6455 79.5015 28.2063 79.5015 27.6561C79.5015 27.1928 79.6278 26.7729 79.8803 26.3964C80.1425 26.0103 80.5213 25.7063 81.0166 25.4843C81.5216 25.2622 82.1189 25.1512 82.8085 25.1512C83.8282 25.1512 84.6295 25.4022 85.2122 25.9041C85.8046 26.4061 86.1445 27.0721 86.232 27.9022H83.9302C83.8914 27.6223 83.7651 27.4003 83.5514 27.2362C83.3475 27.0721 83.0755 26.9901 82.7356 26.9901C82.4443 26.9901 82.2209 27.048 82.0655 27.1638C81.9101 27.27 81.8324 27.4196 81.8324 27.6127C81.8324 27.8443 81.9538 28.0181 82.1966 28.1339C82.4491 28.2497 82.8376 28.3656 83.3621 28.4814C83.9642 28.6358 84.4547 28.7903 84.8334 28.9447C85.2122 29.0895 85.5424 29.3308 85.8241 29.6687C86.1154 29.9969 86.2659 30.4409 86.2757 31.0007C86.2757 31.4737 86.1397 31.8984 85.8678 32.2749C85.6055 32.6417 85.2219 32.9313 84.7169 33.1436C84.2216 33.356 83.6437 33.4622 82.9833 33.4622Z" fill="url(#paint6_linear_103_155)"/>
<path d="M77.887 25.2671V33.3463H75.3959V32.2459C75.1433 32.6031 74.7986 32.8926 74.3615 33.1146C73.9342 33.327 73.4583 33.4332 72.9339 33.4332C72.3123 33.4332 71.7636 33.298 71.2877 33.0278C70.8118 32.7478 70.4427 32.3473 70.1805 31.826C69.9183 31.3048 69.7872 30.6918 69.7872 29.9872V25.2671H72.2637V29.6542C72.2637 30.1947 72.4045 30.6146 72.6862 30.9138C72.9678 31.2131 73.3466 31.3627 73.8225 31.3627C74.3081 31.3627 74.6917 31.2131 74.9734 30.9138C75.255 30.6146 75.3959 30.1947 75.3959 29.6542V25.2671H77.887Z" fill="url(#paint7_linear_103_155)"/>
<path d="M66.1199 26.6136C66.4113 26.1696 66.7755 25.8221 67.2125 25.5711C67.6495 25.3105 68.1351 25.1802 68.6693 25.1802V27.8009H67.9846C67.363 27.8009 66.8969 27.936 66.5861 28.2063C66.2753 28.4669 66.1199 28.9302 66.1199 29.5963V33.3463H63.6288V25.2671H66.1199V26.6136Z" fill="url(#paint8_linear_103_155)"/>
<path d="M62.3785 23.1821V25.1657H59.6689V33.3463H57.1778V25.1657H54.4681V23.1821H62.3785Z" fill="url(#paint9_linear_103_155)"/>
<path d="M51.9781 24.4273C51.5411 24.4273 51.1817 24.3018 50.9001 24.0508C50.6281 23.7902 50.4922 23.4717 50.4922 23.0952C50.4922 22.7091 50.6281 22.3906 50.9001 22.1396C51.1817 21.879 51.5411 21.7487 51.9781 21.7487C52.4054 21.7487 52.7551 21.879 53.027 22.1396C53.3087 22.3906 53.4495 22.7091 53.4495 23.0952C53.4495 23.4717 53.3087 23.7902 53.027 24.0508C52.7551 24.3018 52.4054 24.4273 51.9781 24.4273ZM53.2164 25.2671V33.3463H50.7253V25.2671H53.2164Z" fill="url(#paint10_linear_103_155)"/>
<defs>
<linearGradient id="paint0_linear_103_155" x1="0.294412" y1="44.7115" x2="130.257" y2="31.3605" gradientUnits="userSpaceOnUse">
<stop offset="0.00293206" stop-color="#419666"/>
<stop offset="0.814925" stop-color="#017433"/>
</linearGradient>
<linearGradient id="paint1_linear_103_155" x1="59.301" y1="0.00699836" x2="60.1031" y2="69.9825" gradientUnits="userSpaceOnUse">
<stop offset="0.654536" stop-color="#F7941D"/>
<stop offset="1" stop-color="#C07317"/>
</linearGradient>
<linearGradient id="paint2_linear_103_155" x1="121.57" y1="3.75035" x2="121.57" y2="61.611" gradientUnits="userSpaceOnUse">
<stop offset="0.265306" stop-color="#017433"/>
<stop offset="0.591837" stop-color="#298A53"/>
</linearGradient>
<linearGradient id="paint3_linear_103_155" x1="264.124" y1="6.35233" x2="264.124" y2="89.3128" gradientUnits="userSpaceOnUse">
<stop offset="0.265306" stop-color="#017433"/>
<stop offset="0.591837" stop-color="#298A53"/>
</linearGradient>
<linearGradient id="paint4_linear_103_155" x1="424.228" y1="18.7497" x2="424.228" y2="86.5835" gradientUnits="userSpaceOnUse">
<stop offset="0.265306" stop-color="#017433"/>
<stop offset="0.591837" stop-color="#298A53"/>
</linearGradient>
<linearGradient id="paint5_linear_103_155" x1="798.52" y1="18.1594" x2="798.52" y2="86.7751" gradientUnits="userSpaceOnUse">
<stop offset="0.265306" stop-color="#017433"/>
<stop offset="0.591837" stop-color="#298A53"/>
</linearGradient>
<linearGradient id="paint6_linear_103_155" x1="718.881" y1="6.35233" x2="718.881" y2="89.3128" gradientUnits="userSpaceOnUse">
<stop offset="0.265306" stop-color="#017433"/>
<stop offset="0.591837" stop-color="#298A53"/>
</linearGradient>
<linearGradient id="paint7_linear_103_155" x1="765.698" y1="5.47258" x2="765.698" y2="89.904" gradientUnits="userSpaceOnUse">
<stop offset="0.265306" stop-color="#017433"/>
<stop offset="0.591837" stop-color="#298A53"/>
</linearGradient>
<linearGradient id="paint8_linear_103_155" x1="1378.26" y1="6.21697" x2="1378.26" y2="90.6483" gradientUnits="userSpaceOnUse">
<stop offset="0.265306" stop-color="#017433"/>
<stop offset="0.591837" stop-color="#298A53"/>
</linearGradient>
<linearGradient id="paint9_linear_103_155" x1="1018.35" y1="18.7497" x2="1018.35" y2="86.5835" gradientUnits="userSpaceOnUse">
<stop offset="0.265306" stop-color="#017433"/>
<stop offset="0.591837" stop-color="#298A53"/>
</linearGradient>
<linearGradient id="paint10_linear_103_155" x1="51.9708" y1="21.7487" x2="51.9708" y2="33.3463" gradientUnits="userSpaceOnUse">
<stop offset="0.165" stop-color="#F7941D"/>
<stop offset="0.497154" stop-color="#298A53"/>
</linearGradient>
</defs>
</svg>
